HIERARCHY
ROOT Hips
{
    OFFSET 0.000000 0.000000 0.000000
    CHANNELS 6 Xposition Yposition Zposition Zrotation Xrotation Yrotation
    JOINT Spine
    {
        OFFSET -0.000000 14.517291 0.000000
        CHANNELS 3 Zrotation Xrotation Yrotation
        JOINT Spine1
        {
            OFFSET -0.000000 37.558300 0.000000
            CHANNELS 3 Zrotation Xrotation Yrotation
            JOINT Neck
            {
                OFFSET -0.000000 37.404057 3.400369
                CHANNELS 3 Zrotation Xrotation Yrotation
                JOINT Head
                {
                    OFFSET -0.000000 24.785618 -3.540803
                    CHANNELS 3 Zrotation Xrotation Yrotation
                    End Site
                    {
                        OFFSET -0.000000 35.408028 0.000000
                    }
                }
            }
            JOINT LeftShoulder
            {
                OFFSET 6.992933 33.973492 -0.192664
                CHANNELS 3 Zrotation Xrotation Yrotation
                JOINT LeftArm
                {
                    OFFSET 21.527611 0.000000 0.000000
                    CHANNELS 3 Zrotation Xrotation Yrotation
                    JOINT LeftForeArm
                    {
                        OFFSET 56.353916 0.000000 0.000000
                        CHANNELS 3 Zrotation Xrotation Yrotation
                        JOINT LeftHand
                        {
                            OFFSET 47.774071 0.000000 0.000000
                            CHANNELS 3 Zrotation Xrotation Yrotation
                            End Site
                            {
                                OFFSET 26.556021 0.000000 0.000000
                            }
                        }
                    }
                }
            }
            JOINT RightShoulder
            {
                OFFSET -7.065357 33.973492 -0.192664
                CHANNELS 3 Zrotation Xrotation Yrotation
                JOINT RightArm
                {
                    OFFSET -21.527611 0.000000 0.000000
                    CHANNELS 3 Zrotation Xrotation Yrotation
                    JOINT RightForeArm
                    {
                        OFFSET -56.353916 0.000000 0.000000
                        CHANNELS 3 Zrotation Xrotation Yrotation
                        JOINT RightHand
                        {
                            OFFSET -47.774071 0.000000 0.000000
                            CHANNELS 3 Zrotation Xrotation Yrotation
                            End Site
                            {
                                OFFSET -26.556021 0.000000 0.000000
                            }
                        }
                    }
                }
            }
        }
    }
    JOINT LeftUpLeg
    {
        OFFSET 17.704014 0.000000 0.000000
        CHANNELS 3 Zrotation Xrotation Yrotation
        JOINT LeftLeg
        {
            OFFSET -0.000000 -81.181816 0.000000
            CHANNELS 3 Zrotation Xrotation Yrotation
            JOINT LeftFoot
            {
                OFFSET -0.000000 -62.821102 0.000000
                CHANNELS 3 Zrotation Xrotation Yrotation
                JOINT LeftToeBase
                {
                    OFFSET -0.000000 -11.507608 26.556021
                    CHANNELS 3 Zrotation Xrotation Yrotation
                    End Site
                    {
                        OFFSET -0.000000 0.000000 7.081605
                    }
                }
            }
        }
    }
    JOINT RightUpLeg
    {
        OFFSET -17.704014 0.000000 0.000000
        CHANNELS 3 Zrotation Xrotation Yrotation
        JOINT RightLeg
        {
            OFFSET -0.000000 -81.181816 0.000000
            CHANNELS 3 Zrotation Xrotation Yrotation
            JOINT RightFoot
            {
                OFFSET -0.000000 -62.821102 0.000000
                CHANNELS 3 Zrotation Xrotation Yrotation
                JOINT RightToeBase
                {
                    OFFSET -0.000000 -11.507608 26.556021
                    CHANNELS 3 Zrotation Xrotation Yrotation
                    End Site
                    {
                        OFFSET -0.000000 0.000000 7.081605
                    }
                }
            }
        }
    }
}
MOTION
Frames:    7
Frame Time:    0.008333
-8.268179    151.755447    -15.243217    0.385910    0.406082    21.744768    -2.907984    -0.448557    3.462873    -2.770900    6.325836    1.312916    0.216854    -7.760494    -9.395059    12.563626    4.874695    -8.578954    5.836664    7.339020    -19.755480    -30.699907    22.326426    -91.627052    50.791996    -71.568825    -65.165924    -14.277516    -54.678173    -21.524101    -7.417226    5.752280    7.060733    27.766808    -10.622048    65.891762    -4.920406    -24.423313    17.199507    13.854815    -19.191969    38.701916    1.203452    -32.917854    -26.391180    -9.684377    19.356136    -22.107595    -11.353729    5.227171    29.619915    0.000000    0.000000    0.000000    2.182455    10.685309    -12.814471    3.181897    25.610729    -0.762196    -3.634038    -32.141453    -6.872927    0.000000    0.000000    0.000000    
-8.244867    151.742477    -15.244172    0.397657    0.394455    21.713812    -2.911645    -0.456708    3.449057    -2.774617    6.341341    1.308945    0.183886    -7.771506    -9.392682    12.586218    4.898203    -8.569616    5.817109    7.377330    -19.748259    -30.697960    22.316559    -91.659622    50.896862    -71.584000    -65.023117    -14.166128    -54.729382    -21.489254    -7.438387    5.743894    7.062971    27.741249    -10.634956    65.899269    -4.907004    -24.396502    17.226181    13.807249    -19.175047    38.748188    1.199505    -32.914497    -26.394503    -9.703769    19.390791    -22.089573    -11.338894    5.194551    29.638725    0.000000    0.000000    0.000000    2.158207    10.702837    -12.808029    3.169265    25.620119    -0.720982    -3.626850    -32.176632    -6.876512    0.000000    0.000000    0.000000    
-8.222474    151.728897    -15.246233    0.408059    0.377796    21.685366    -2.907374    -0.449387    3.435446    -2.789837    6.341543    1.305195    0.193682    -7.790296    -9.384661    12.555195    4.937844    -8.570858    5.803538    7.402446    -19.746920    -30.702892    22.312359    -91.689034    50.982983    -71.611137    -64.913956    -14.031215    -54.803268    -21.413065    -7.450601    5.744480    7.059949    27.732481    -10.663205    65.912384    -4.889955    -24.351891    17.249088    13.800263    -19.124674    38.810024    1.197743    -32.911022    -26.400244    -9.722404    19.430233    -22.057930    -11.306229    5.178648    29.622252    0.000000    0.000000    0.000000    2.139293    10.718776    -12.835650    3.147079    25.638758    -0.675116    -3.619684    -32.208511    -6.861157    0.000000    0.000000    0.000000    
-8.200968    151.716187    -15.246931    0.424722    0.364190    21.661705    -2.915330    -0.451076    3.420998    -2.811274    6.333148    1.301248    0.219073    -7.757655    -9.372506    12.538401    4.940724    -8.565604    5.814125    7.441789    -19.766787    -30.728594    22.275269    -91.700058    50.905102    -71.643066    -64.961685    -13.867021    -54.904121    -21.330151    -7.434716    5.756823    7.080120    27.696228    -10.707807    65.894669    -4.868947    -24.284815    17.262112    13.793276    -19.060469    38.806175    1.187466    -32.910374    -26.412857    -9.745645    19.475080    -22.028656    -11.286266    5.151705    29.627571    0.000000    0.000000    0.000000    2.116722    10.737366    -12.837857    3.133840    25.650236    -0.675061    -3.608669    -32.247036    -6.821465    0.000000    0.000000    0.000000    
-8.179832    151.703339    -15.243125    0.438696    0.350663    21.635422    -2.913714    -0.448934    3.407405    -2.831175    6.330895    1.297735    0.222125    -7.743979    -9.365559    12.526805    4.948634    -8.561007    5.809589    7.457406    -19.754839    -30.734503    22.248053    -91.721840    50.784645    -71.689163    -65.063866    -13.699159    -55.028694    -21.249796    -7.442705    5.757370    7.080563    27.691378    -10.744778    65.900467    -4.836892    -24.245518    17.286360    13.790505    -19.021170    38.830479    1.185887    -32.906784    -26.430645    -9.773315    19.510172    -21.964361    -11.262970    5.127657    29.600985    0.000000    0.000000    0.000000    2.093439    10.755013    -12.816710    3.138505    25.662697    -0.647635    -3.624349    -32.274990    -6.855597    0.000000    0.000000    0.000000    
-8.162300    151.694839    -15.239037    0.442692    0.335982    21.613466    -2.906199    -0.446502    3.395966    -2.869262    6.311061    1.295569    0.280276    -7.713520    -9.355363    12.484120    4.957481    -8.568158    5.840950    7.487262    -19.758688    -30.739803    22.200661    -91.730896    50.696079    -71.720734    -65.134201    -13.596116    -55.114605    -21.209372    -7.415879    5.779165    7.076424    27.655548    -10.762766    65.899513    -4.839243    -24.230255    17.316050    13.772281    -19.014883    38.792439    1.188033    -32.913746    -26.417641    -9.788182    19.570354    -21.987024    -11.243682    5.091190    29.620876    0.000000    0.000000    0.000000    2.086828    10.761254    -12.803776    3.127708    25.690266    -0.652263    -3.629768    -32.289562    -6.849637    0.000000    0.000000    0.000000    
-8.147634    151.685089    -15.232227    0.442152    0.319792    21.591860    -2.893270    -0.444736    3.385508    -2.885616    6.299060    1.292663    0.277085    -7.703852    -9.353760    12.480176    4.993674    -8.570098    5.824677    7.504354    -19.750599    -30.704601    22.154236    -91.728134    50.689453    -71.758278    -65.134621    -13.549182    -55.190853    -21.212555    -7.416156    5.791053    7.051847    27.635393    -10.774362    65.918221    -4.830708    -24.222542    17.350548    13.753118    -19.014351    38.783470    1.203218    -32.918259    -26.409250    -9.814846    19.618029    -21.957914    -11.233021    5.055649    29.603573    0.000000    0.000000    0.000000    2.083582    10.772790    -12.771176    3.133294    25.709293    -0.632888    -3.645652    -32.308121    -6.892315    0.000000    0.000000    0.000000    
